<mxfile host="app.diagrams.net" modified="2023-05-16T05:59:21.002Z" agent="Mozilla/5.0 (Macintosh; Intel Mac OS X 10_15_7) AppleWebKit/537.36 (KHTML, like Gecko) Chrome/112.0.0.0 Safari/537.36" version="21.2.3" etag="hfIdyL3i5OTPNlzpWq4l" type="github">
  <diagram name="第 1 页" id="_RvRzjbS9ek3jkx-E9s1">
    <mxGraphModel>
      <root>
        <mxCell id="0" />
        <mxCell id="1" parent="0" />
      </root>
    </mxGraphModel>
  </diagram>
</mxfile>
